<svg width="20" height="19" viewBox="0 0 20 19" fill="none" xmlns="http://www.w3.org/2000/svg">
<path fill-rule="evenodd" clip-rule="evenodd" d="M19.0965 7.3235C19.1196 7.42372 19.1228 7.52751 19.1058 7.62895C19.0888 7.73039 19.052 7.82749 18.9975 7.91471C18.943 8.00193 18.8718 8.07755 18.7881 8.13727C18.7044 8.19699 18.6097 8.23963 18.5095 8.26275C18.4092 8.28588 18.3054 8.28904 18.204 8.27205C18.1026 8.25507 18.0055 8.21827 17.9182 8.16375C17.831 8.10924 17.7554 8.03808 17.6957 7.95434C17.636 7.8706 17.5933 7.77592 17.5702 7.6757C17.1827 5.94953 16.233 4.40088 14.8702 3.2728C13.5278 2.17903 11.8461 1.58748 10.1146 1.6C7.91045 1.62096 5.80261 2.50633 4.2446 4.0656C2.62107 5.65841 1.66587 7.81028 1.5736 10.0828C1.52615 11.0299 1.61509 11.9789 1.8377 12.9007C2.0648 13.7939 2.41033 14.6527 2.8651 15.4543C2.91907 15.5429 2.95505 15.6413 2.97098 15.7439C2.98692 15.8464 2.9825 15.9511 2.95798 16.052C2.93346 16.1528 2.88932 16.2478 2.82808 16.3316C2.76684 16.4154 2.68969 16.4863 2.60105 16.5403C2.51241 16.5942 2.41401 16.6302 2.31146 16.6461C2.20891 16.6621 2.10423 16.6577 2.00339 16.6331C1.90255 16.6086 1.80753 16.5645 1.72375 16.5032C1.63997 16.442 1.56907 16.3648 1.5151 16.2762C0.971541 15.3414 0.565948 14.3329 0.310901 13.2821C0.0481726 12.2172 -0.0507961 11.1186 0.0174011 10.0239C0.136142 7.36311 1.25832 4.84605 3.1581 2.9793C5.00597 1.11411 7.51848 0.0584505 10.144 0.0441035C12.2378 0.0360883 14.2701 0.751528 15.8971 2.0694C17.494 3.43694 18.6145 5.27703 19.0965 7.3235Z" fill="#D375FF"/>
<path fill-rule="evenodd" clip-rule="evenodd" d="M3.0113 7.5583C3.04728 7.46 3.10298 7.3701 3.17498 7.29411C3.24699 7.21813 3.33377 7.15768 3.43 7.11647C3.52622 7.07526 3.62986 7.05416 3.73454 7.05448C3.83921 7.05479 3.94272 7.07651 4.0387 7.1183C4.137 7.15428 4.2269 7.20998 4.30289 7.28199C4.37887 7.35399 4.43932 7.44077 4.48053 7.537C4.52174 7.63322 4.54284 7.73686 4.54252 7.84154C4.54221 7.94622 4.52049 8.04973 4.4787 8.1457C4.3613 8.4686 4.2732 8.7914 4.1851 9.1143C4.11709 9.44293 4.07781 9.77686 4.0677 10.1123V10.4645C4.05341 12.1993 4.69262 13.8759 5.8582 15.1609C6.99662 16.4008 8.5796 17.1395 10.2611 17.2156H10.584C12.3955 17.2004 14.1309 16.4852 15.4271 15.2196C16.7756 13.9225 17.6097 12.1815 17.7753 10.3178C17.7909 10.1076 17.8893 9.9122 18.0489 9.77458C18.2086 9.63695 18.4164 9.56838 18.6265 9.58395C18.8367 9.59952 19.0321 9.69795 19.1698 9.85759C19.3074 10.0172 19.376 10.225 19.3604 10.4352C19.1814 12.6907 18.1783 14.8013 16.5425 16.3644C14.9426 17.9108 12.8093 18.7829 10.5843 18.8H10.2027C9.16462 18.7572 8.14525 18.5096 7.20324 18.0713C6.26123 17.6331 5.41519 17.0129 4.7138 16.2464C3.28161 14.6744 2.4954 12.6198 2.5123 10.4933V10.0823C2.5417 9.6423 2.6004 9.2311 2.6591 8.8202C2.73763 8.38968 2.85553 7.96727 3.0113 7.5583Z" fill="#D375FF"/>
<path fill-rule="evenodd" clip-rule="evenodd" d="M11.1713 2.77389C11.3751 2.81388 11.5557 2.9306 11.6759 3.09995C11.7961 3.2693 11.8466 3.47834 11.8171 3.68389C11.7771 3.88765 11.6604 4.06825 11.491 4.18842C11.3217 4.30858 11.1126 4.35911 10.9071 4.32959C10.7526 4.29562 10.5952 4.27597 10.4371 4.27089C10.2904 4.27089 10.1436 4.24159 9.9671 4.24159C9.20898 4.24727 8.45994 4.40718 7.7656 4.71159C7.05039 5.02407 6.40269 5.47251 5.8585 6.03199C5.71449 6.18379 5.51607 6.27216 5.3069 6.27766C5.09773 6.28316 4.89495 6.20535 4.74315 6.06134C4.59135 5.91733 4.50298 5.71891 4.49748 5.50974C4.49197 5.30057 4.56979 5.09779 4.7138 4.94599C5.39379 4.2302 6.21283 3.66086 7.1207 3.27289C8.01026 2.88758 8.96908 2.6878 9.9385 2.68579C10.1444 2.68159 10.3503 2.69141 10.5549 2.71519C10.7617 2.7173 10.9679 2.73694 11.1713 2.77389Z" fill="#1AF070"/>
<path fill-rule="evenodd" clip-rule="evenodd" d="M13.8131 15.19C13.6379 15.3029 13.4251 15.3416 13.2214 15.2975C13.0178 15.2535 12.8399 15.1303 12.7271 14.9552C12.6142 14.78 12.5755 14.5672 12.6195 14.3635C12.6636 14.1598 12.7867 13.982 12.9619 13.8691C13.61 13.4509 14.1525 12.8883 14.5469 12.2254C14.9409 11.5563 15.1627 10.7998 15.1926 10.0239C15.2434 9.11589 15.0721 8.20918 14.6937 7.38221C14.345 6.56761 13.7883 5.85902 13.0793 5.32751C12.9954 5.26429 12.9248 5.18507 12.8717 5.09443C12.8186 5.00379 12.7839 4.90353 12.7698 4.79943C12.7556 4.69533 12.7622 4.58946 12.7892 4.48792C12.8162 4.38638 12.863 4.29119 12.9269 4.20785C12.9909 4.1245 13.0707 4.05466 13.1618 4.00233C13.2529 3.95001 13.3535 3.91626 13.4577 3.90301C13.562 3.88977 13.6678 3.8973 13.7691 3.92517C13.8704 3.95305 13.9651 4.00071 14.0479 4.06541C14.9512 4.75916 15.6675 5.66708 16.1319 6.70711C16.597 7.76905 16.8081 8.92482 16.7483 10.0826C16.6991 11.1051 16.4074 12.1011 15.8971 12.9885C15.4107 13.8947 14.6913 14.6547 13.8131 15.19Z" fill="#FFEA2D"/>
<path fill-rule="evenodd" clip-rule="evenodd" d="M13.9892 8.26281C14.0258 8.35961 14.0429 8.46274 14.0392 8.56618C14.0356 8.66962 14.0115 8.7713 13.9682 8.86531C13.9248 8.95932 13.8633 9.04377 13.787 9.11374C13.7107 9.1837 13.6213 9.23779 13.5239 9.27285C13.4265 9.3079 13.3231 9.32323 13.2198 9.31793C13.1164 9.31262 13.0151 9.2868 12.9218 9.24197C12.8285 9.19713 12.7451 9.13417 12.6764 9.05677C12.6077 8.97936 12.5551 8.88906 12.5216 8.79111C12.3291 8.22857 11.971 7.73742 11.4942 7.38221C11.0219 7.047 10.4591 6.8628 9.88 6.85391C9.46902 6.85606 9.06261 6.94024 8.68459 7.10152C8.30657 7.26279 7.96455 7.49792 7.6786 7.79311C7.0673 8.40472 6.70166 9.21937 6.651 10.0826V10.3175C6.6327 11.4027 7.032 12.4535 7.7664 13.2527C8.4694 14.0278 9.45125 14.4923 10.4964 14.5442H10.76C10.9613 14.5478 11.1534 14.6293 11.2957 14.7717C11.4381 14.9141 11.5196 15.1061 11.5232 15.3074C11.5224 15.5073 11.4466 15.6996 11.3108 15.8464C11.1751 15.9931 10.9892 16.0836 10.79 16.1H10.4377C9.70987 16.0724 8.99486 15.8999 8.33459 15.5924C7.67431 15.285 7.08204 14.8488 6.5925 14.3095C5.59085 13.2119 5.045 11.7739 5.066 10.2881V9.99461C5.12521 8.74483 5.64852 7.56208 6.5336 6.67771C7.415 5.79982 8.6065 5.30409 9.8505 5.29771C10.7671 5.29545 11.6609 5.5831 12.4042 6.11951C13.129 6.66533 13.6796 7.40993 13.9892 8.26281Z" fill="#98E1FF"/>
<path fill-rule="evenodd" clip-rule="evenodd" d="M11.7 10.0826C11.6922 10.2928 11.6013 10.4913 11.4471 10.6344C11.293 10.7775 11.0883 10.8535 10.8781 10.8457C10.668 10.838 10.4695 10.747 10.3264 10.5929C10.1832 10.4387 10.1072 10.2341 10.115 10.0239V9.9946C10.1181 9.87598 10.0761 9.76061 9.9975 9.6717C9.96584 9.63271 9.92541 9.60175 9.87952 9.58135C9.83362 9.56095 9.78356 9.55168 9.7334 9.5543H9.7037C9.63812 9.55373 9.57312 9.56645 9.51259 9.59168C9.45206 9.61691 9.39726 9.65413 9.3515 9.7011C9.2964 9.75451 9.25245 9.81834 9.22222 9.88888C9.19199 9.95942 9.17608 10.0353 9.1754 10.112V10.2C9.17208 10.6411 9.32835 11.0685 9.6154 11.4035C9.89866 11.7091 10.2861 11.8976 10.7014 11.9318H10.79C11.1077 11.927 11.4197 11.8465 11.7 11.697C11.9898 11.5245 12.232 11.2824 12.4045 10.9926C12.5135 10.8136 12.6891 10.6852 12.8928 10.6356C13.0964 10.5861 13.3114 10.6195 13.4904 10.7285C13.6694 10.8375 13.7978 11.0131 13.8473 11.2167C13.8969 11.4204 13.8635 11.6354 13.7545 11.8144C13.4511 12.338 13.0159 12.7732 12.4923 13.0766C11.9768 13.3819 11.3891 13.5442 10.7899 13.5466H10.643C10.2254 13.5343 9.8148 13.4368 9.43626 13.2602C9.05771 13.0835 8.71924 12.8314 8.4416 12.5193C7.86725 11.9079 7.55169 11.0981 7.561 10.2593V10.0832C7.58874 9.53114 7.81857 9.00856 8.2067 8.615C8.59547 8.22396 9.12301 8.00241 9.6744 7.9986H9.7624C10.0237 8.00977 10.2801 8.0726 10.517 8.18344C10.7539 8.29428 10.9664 8.45095 11.1424 8.6444C11.4879 9.03177 11.6763 9.53423 11.6707 10.0533L11.7 10.0826Z" fill="#F83A3A"/>
</svg>
