<svg id="Слой_1" data-name="Слой 1" xmlns="http://www.w3.org/2000/svg" viewBox="0 0 44.7507 21.3834"><defs><style>.cls-1{fill:#d375ff;}.cls-1,.cls-2,.cls-3,.cls-4,.cls-5,.cls-6{fill-rule:evenodd;}.cls-2{fill:#1af070;}.cls-3{fill:#ffea2d;}.cls-4{fill:#98e1ff;}.cls-5{fill:#f83a3a;}.cls-6,.cls-7{fill:#fff;}</style></defs><path class="cls-1" d="M3.4223,18.6829A.79.79,0,1,1,4.479,17.5088a8.5416,8.5416,0,0,0,2.73,1.7025,8.7372,8.7372,0,0,0,3.2.587h33.55a.7926.7926,0,1,1,0,1.5851H10.4375A10.0592,10.0592,0,0,1,6.68,20.6789,9.3023,9.3023,0,0,1,3.4223,18.6829Z"/><path class="cls-1" d="M19.0965,7.3235a.7832.7832,0,1,1-1.5263.3522,7.9864,7.9864,0,0,0-2.7-4.4029A7.4434,7.4434,0,0,0,10.1146,1.6a8.4111,8.4111,0,0,0-5.87,2.4656,8.9374,8.9374,0,0,0-2.671,6.0172,9.8948,9.8948,0,0,0,.2641,2.8179,10.3367,10.3367,0,0,0,1.0274,2.5536.79.79,0,1,1-1.35.8219A11.2219,11.2219,0,0,1,.3109,13.2821a10.7987,10.7987,0,0,1-.2935-3.2582A10.5348,10.5348,0,0,1,3.1581,2.9793,9.91,9.91,0,0,1,10.144.0441a9.0851,9.0851,0,0,1,5.7531,2.0253A9.9075,9.9075,0,0,1,19.0965,7.3235Z"/><path class="cls-1" d="M3.0113,7.5583a.7677.7677,0,0,1,1.0274-.44.7677.7677,0,0,1,.44,1.0274c-.1174.3229-.2055.6457-.2936.9686a5.7845,5.7845,0,0,0-.1174.998v.3522a6.9055,6.9055,0,0,0,1.7905,4.6964,6.3683,6.3683,0,0,0,4.4029,2.0547h.3229a7.017,7.017,0,0,0,4.8431-1.996,7.7535,7.7535,0,0,0,2.3482-4.9018.7947.7947,0,0,1,1.5851.1174,9.2085,9.2085,0,0,1-2.8179,5.9292A8.669,8.669,0,0,1,10.5843,18.8h-.3816a7.88,7.88,0,0,1-5.4889-2.5536,8.4429,8.4429,0,0,1-2.2015-5.7531v-.411c.0294-.44.0881-.8512.1468-1.2621A7.15,7.15,0,0,1,3.0113,7.5583Z"/><path class="cls-2" d="M11.1713,2.7739a.81.81,0,0,1,.6458.91.81.81,0,0,1-.91.6457,2.5743,2.5743,0,0,0-.47-.0587c-.1467,0-.2935-.0293-.47-.0293a5.5871,5.5871,0,0,0-2.2015.47A6.0262,6.0262,0,0,0,5.8585,6.032.7889.7889,0,0,1,4.7138,4.946,7.2489,7.2489,0,0,1,7.1207,3.2729a7.1267,7.1267,0,0,1,2.8178-.5871,4.5372,4.5372,0,0,1,.6164.0294A3.6578,3.6578,0,0,1,11.1713,2.7739Z"/><path class="cls-3" d="M13.8131,15.19a.7857.7857,0,0,1-.8512-1.3209,4.9974,4.9974,0,0,0,1.585-1.6437,4.6954,4.6954,0,0,0,.6457-2.2015,5.5979,5.5979,0,0,0-.4989-2.6417,5.0532,5.0532,0,0,0-1.6144-2.0547.7955.7955,0,1,1,.9686-1.2621,6.855,6.855,0,0,1,2.084,2.6417,7.4556,7.4556,0,0,1,.6164,3.3755,6.4511,6.4511,0,0,1-.8512,2.9059A5.7794,5.7794,0,0,1,13.8131,15.19Z"/><path class="cls-4" d="M13.9892,8.2628a.78.78,0,1,1-1.4676.5283,2.9462,2.9462,0,0,0-1.0274-1.4089A2.8649,2.8649,0,0,0,9.88,6.8539a3.0874,3.0874,0,0,0-2.2014.9392A3.5313,3.5313,0,0,0,6.651,10.0826v.2349a4.2325,4.2325,0,0,0,1.1154,2.9352,3.95,3.95,0,0,0,2.73,1.2915H10.76a.7771.7771,0,0,1,.7632.7632A.7986.7986,0,0,1,10.79,16.1h-.3523a5.4729,5.4729,0,0,1-3.8452-1.7905A5.8433,5.8433,0,0,1,5.066,10.2881V9.9946A5.0251,5.0251,0,0,1,6.5336,6.6777a4.7346,4.7346,0,0,1,3.3169-1.38,4.3454,4.3454,0,0,1,2.5537.8218A4.6833,4.6833,0,0,1,13.9892,8.2628Z"/><path class="cls-5" d="M11.7,10.0826a.793.793,0,1,1-1.585-.0587V9.9946a.4694.4694,0,0,0-.1175-.3229.3188.3188,0,0,0-.2641-.1174H9.7037a.4859.4859,0,0,0-.3522.1468.5794.5794,0,0,0-.1761.4109V10.2a1.8283,1.8283,0,0,0,.44,1.2035,1.6673,1.6673,0,0,0,1.086.5283H10.79a1.9973,1.9973,0,0,0,.91-.2348,2.0246,2.0246,0,0,0,.7045-.7044.79.79,0,1,1,1.35.8218,3.4688,3.4688,0,0,1-1.2622,1.2622,3.3673,3.3673,0,0,1-1.7024.47H10.643a3.0672,3.0672,0,0,1-2.2014-1.0273,3.2481,3.2481,0,0,1-.8806-2.26v-.1761A2.2519,2.2519,0,0,1,8.2067,8.615a2.09,2.09,0,0,1,1.4677-.6164h.088a1.98,1.98,0,0,1,1.38.6458,2.0825,2.0825,0,0,1,.5283,1.4089Z"/><path class="cls-1" d="M26.351,0a1.4623,1.4623,0,0,0-1.3832.9386A1.4858,1.4858,0,0,0,23.5846,0c-1.1032,0-1.729.79-1.729,2.0254V7.7887a.1126.1126,0,0,0,.1153.1153h.4446a.1126.1126,0,0,0,.1153-.1153V2.0254c0-.9057.3622-1.4,1.0538-1.4.6093,0,1.0539.494,1.0539,1.4V7.7887a.1126.1126,0,0,0,.1153.1153h.4446a.1125.1125,0,0,0,.1152-.1153V2.0254c0-.9057.4282-1.4,1.0539-1.4.6916,0,1.0539.494,1.0539,1.4V7.7887a.1125.1125,0,0,0,.1152.1153h.4446a.1126.1126,0,0,0,.1153-.1153V2.0254C28.08.79,27.4378,0,26.351,0Zm4.4954,7.904h.4446a.1126.1126,0,0,0,.1153-.1153V5.3517a1.8038,1.8038,0,0,0,1.482-1.8772V.2305A.1125.1125,0,0,0,32.773.1153h-.4446a.1125.1125,0,0,0-.1153.1152v3.244a1.1611,1.1611,0,1,1-2.3053,0V.2305a.1125.1125,0,0,0-.1153-.1152h-.4446a.1125.1125,0,0,0-.1152.1152v3.244a1.8038,1.8038,0,0,0,1.482,1.8772v2.437A.14.14,0,0,0,30.8464,7.904Z"/><path class="cls-6" d="M37.5316,13.9965a1.9668,1.9668,0,0,0,.99-1.8v-.89a1.9155,1.9155,0,1,0-3.82,0v5.7a.1473.1473,0,0,0,.15.15h.7a.1368.1368,0,0,0,.15-.15v-2.78h.91l1.05,2.8a.15.15,0,0,0,.15.13h.76c.1,0,.18-.07.15-.17Zm-.02-1.8c0,.66-.36,1.07-.93,1.07h-.88v-2.02c0-.65.36-1.08.91-1.08.53,0,.9.43.9,1.08Z"/><path class="cls-7" d="M32.3415,9.7265a.6088.6088,0,0,0-1.19,0l-1.67,7.22a.1638.1638,0,0,0,.16.21h.63a.1622.1622,0,0,0,.16-.13l.4-1.68h1.89l.34,1.67a.1617.1617,0,0,0,.16.14h.63a.1638.1638,0,0,0,.16-.21Zm-1.35,4.79.6-2.84a.1633.1633,0,0,1,.32-.01l.65,2.85Z"/><path class="cls-7" d="M43.0115,16.9265a.17.17,0,0,1-.15.23h-.74a.1714.1714,0,0,1-.16-.12c-.37-1.13-.86-2.22-1.3-3.33h-.37v3.28a.1753.1753,0,0,1-.17.17h-.65a.1667.1667,0,0,1-.16-.17v-7.57a.1667.1667,0,0,1,.16-.17h.65a.1753.1753,0,0,1,.17.17v2.89h.37c.53-1.34.54-1.37,1.18-2.95a.15.15,0,0,1,.15-.11h.74a.17.17,0,0,1,.15.23c-.65,1.53-.69,1.61-1.44,3.36C41.9615,14.2465,41.9916,14.2965,43.0115,16.9265Z"/><path class="cls-6" d="M28.7715,11.2265v5.76a.1666.1666,0,0,1-.16.17h-.66a.1752.1752,0,0,1-.17-.17v-5.76a.9851.9851,0,1,0-1.97,0v5.76a.1752.1752,0,0,1-.17.17h-.66a.1667.1667,0,0,1-.16-.17v-5.76a.99.99,0,0,0-1.98,0v5.76a.1666.1666,0,0,1-.16.17h-.66a.1752.1752,0,0,1-.17-.17v-5.76a1.9767,1.9767,0,0,1,3.46-1.31,1.9768,1.9768,0,0,1,3.46,1.31Z"/></svg>