<svg width="175" height="175" viewBox="0 0 175 175" fill="none" xmlns="http://www.w3.org/2000/svg">
<path d="M69.441 134.757C67.0272 131.388 61.4556 128.538 61.471 128.454C61.5055 128.447 59.0428 133.571 61.1931 137.487C63.3696 141.393 67.0019 142.785 69.3453 141.834C71.7416 140.869 71.8435 138.224 69.441 134.757ZM33.7369 57.3539C33.7533 57.3898 28.4257 55.3568 24.7828 57.8864C21.1523 60.4294 20.1969 64.1358 21.3908 66.3531C22.5906 68.6311 25.2138 68.5371 28.3635 65.907C31.4185 63.2789 33.6347 57.3597 33.7369 57.3539ZM32.0973 53.8987C35.7296 51.947 39.5009 46.5128 39.6134 46.5244C39.6226 46.5528 34.8566 43.4328 30.5831 45.1897C26.3278 46.9677 24.4663 50.4339 25.1062 52.8726C25.7488 55.3732 28.3553 55.8404 32.0973 53.8987ZM20.8204 80.1897C22.4685 82.154 25.0071 81.5097 27.4926 78.29C29.8862 75.0836 30.6737 68.9114 30.7629 68.8882C30.7868 68.924 25.1698 68.0542 22.2252 71.2486C19.3038 74.4673 19.1835 78.2674 20.8204 80.1897ZM22.6763 84.7933C20.5199 88.5449 21.1748 92.3125 23.1477 93.8499C25.1581 95.4386 27.4902 94.2809 29.2501 90.5933C30.9266 86.9384 30.3825 80.7348 30.4618 80.6959C30.4905 80.7318 24.8628 81.05 22.6763 84.7933ZM83.6956 143.756C85.9464 142.236 85.4237 139.662 82.1678 136.908C78.8886 134.252 72.6419 132.775 72.6457 132.685C72.6863 132.663 71.3468 138.216 74.3994 141.51C77.4773 144.792 81.5074 145.256 83.6956 143.756ZM8.19817 81.792C8.07034 81.7654 9.33191 90.7881 13.0691 94.1736C16.673 97.5711 19.2932 96.9668 20.1341 94.62C20.9974 92.2069 19.9649 88.8908 16.8357 85.413C13.7182 81.9192 8.21321 81.7541 8.19817 81.792ZM11.2166 98.0786C11.0963 98.0786 14.1205 106.705 18.409 109.281C22.5639 111.879 24.9859 110.735 25.3447 108.234C25.7142 105.678 24.0702 102.61 20.3282 99.8427C16.6057 97.0498 11.2299 98.0393 11.2166 98.0786ZM38.9233 42.7287C43.0556 41.5321 48.4673 36.8081 48.5962 36.832C48.5979 36.872 44.7161 32.7626 39.8885 33.6646C35.0805 34.6001 32.262 37.6865 32.2374 40.2657C32.2114 42.8938 34.6587 43.9028 38.9233 42.7287ZM57.9826 129.781C56.4196 125.934 51.6354 121.95 51.6566 121.877C51.6987 121.877 48.2451 126.333 49.49 130.627C50.7707 134.911 53.9261 137.074 56.3536 136.66C58.8354 136.26 59.5067 133.696 57.9826 129.781ZM16.334 70.6235C14.0186 66.5598 8.65037 65.2296 8.61892 65.2627C8.48665 65.2162 7.80784 74.2991 10.8157 78.3833C13.6792 82.439 16.3849 82.3987 17.6882 80.2857C19.029 78.1355 18.6913 74.682 16.334 70.6235ZM67.2367 154.539C67.1445 154.67 76.3935 156.342 81.0272 153.649C85.5799 151.108 85.7645 148.361 83.5767 146.905C81.3461 145.399 77.6636 145.431 73.3122 147.368C68.9529 149.262 67.2155 154.509 67.2367 154.539ZM37.8648 139.406C37.7643 139.478 45.0363 144.922 49.9688 144.485C54.8083 144.154 56.0894 141.753 54.9256 139.465C53.7289 137.132 50.6507 135.566 46.1151 135.471C41.5675 135.337 37.8572 139.365 37.8648 139.406ZM51.5934 148.623C51.4994 148.727 59.8454 152.45 64.69 150.894C69.4502 149.473 70.2223 146.836 68.5386 144.881C66.8225 142.88 63.4045 142.058 58.8911 142.967C54.379 143.846 51.5814 148.587 51.5934 148.623ZM47.5783 29.0599C51.5154 25.9004 53.0012 19.8434 53.0012 19.8434C53.0012 19.8434 46.4787 19.4636 42.2774 22.5726C36.9566 26.5006 37.0858 29.4451 38.5429 30.8814C40.1093 32.3634 43.0331 32.6966 47.5783 29.0599ZM48.0049 122.402C47.2902 118.323 43.4012 113.429 43.4347 113.361C43.4743 113.372 39.1824 116.979 39.5351 121.423C39.9121 125.862 42.5443 128.648 44.9851 128.767C47.4734 128.907 48.6727 126.548 48.0049 122.402ZM26.3551 127.502C26.2478 127.547 32.2801 134.389 37.1528 135.028C41.9164 135.742 43.6627 133.672 43.0133 131.202C42.3406 128.66 39.6725 126.479 35.2381 125.418C30.8207 124.33 26.3551 127.459 26.3551 127.502ZM17.373 113.521C17.252 113.543 21.8694 121.438 26.5339 123.095C31.0763 124.79 33.2023 123.154 33.0581 120.604C32.9169 117.998 30.7188 115.313 26.5564 113.362C22.4015 111.381 17.3758 113.478 17.373 113.521ZM28.127 106.847C30.3825 108.001 32.4169 106.362 33.4081 102.353C34.3227 98.3801 32.5567 92.3846 32.6137 92.3395C32.6438 92.3621 27.2564 93.8499 25.881 97.9929C24.5323 102.157 25.9077 105.739 28.127 106.847ZM39.7282 113.109C39.8458 108.996 36.9669 103.432 37.0164 103.369C37.0537 103.39 32.1062 105.994 31.5808 110.373C31.0839 114.773 33.1199 118.025 35.4886 118.662C37.9024 119.324 39.557 117.279 39.7282 113.109ZM35.6274 29.5931C36.8848 24.7594 33.6439 20.393 33.5814 20.4019C33.4402 20.2983 25.8933 27.5345 25.4873 32.7223C24.9254 37.8079 27.1539 39.4071 29.6555 38.4614C32.2384 37.4791 34.4154 34.4176 35.6274 29.5931ZM19.1268 56.0339C17.7873 51.5307 12.8203 49.0906 12.7871 49.1145C12.6518 49.0486 9.85588 57.8491 11.9357 62.4842C13.8621 67.0595 16.5411 67.5921 18.286 65.7976C20.0729 63.9577 20.5052 60.5162 19.1268 56.0339ZM25.4661 42.1641C25.3171 37.4117 21.0514 33.937 21.0015 33.9534C20.8693 33.8694 15.7833 42.0574 16.7294 47.0596C17.5152 51.9894 20.0397 53.0766 22.1831 51.6739C24.3805 50.2455 25.6554 46.9151 25.4661 42.1641ZM105.67 141.834C108.005 142.785 111.636 141.393 113.819 137.487C115.968 133.571 113.499 128.448 113.534 128.453C113.553 128.538 107.975 131.387 105.557 134.757C103.166 138.224 103.27 140.869 105.67 141.834ZM146.642 65.9067C149.793 68.5361 152.423 68.6304 153.628 66.3527C154.812 64.1358 153.858 60.429 150.224 57.8861C146.58 55.3574 141.255 57.3904 141.276 57.3535C141.369 57.3597 143.599 63.2789 146.642 65.9067ZM149.898 52.8719C150.54 50.4335 148.686 46.9677 144.422 45.189C140.152 43.4321 135.385 46.5524 135.4 46.5237C135.52 46.5117 139.287 51.946 142.917 53.898C146.656 55.8404 149.261 55.3732 149.898 52.8719ZM152.787 71.2493C149.834 68.0538 144.233 68.9247 144.242 68.8888C144.341 68.9114 145.124 75.0843 147.512 78.2906C150.002 81.51 152.54 82.1543 154.192 80.1904C155.826 78.2674 155.702 74.4673 152.787 71.2493ZM144.542 80.6959C144.623 80.7348 144.078 86.9384 145.76 90.5933C147.519 94.2809 149.853 95.4396 151.855 93.8499C153.83 92.3125 154.486 88.5449 152.332 84.7933C150.15 81.05 144.516 80.7318 144.542 80.6959ZM100.612 141.51C103.667 138.214 102.324 132.662 102.363 132.684C102.363 132.775 96.1206 134.251 92.8404 136.907C89.5824 139.661 89.0601 142.235 91.3095 143.755C93.5007 145.256 97.5309 144.792 100.612 141.51ZM158.176 85.412C155.039 88.8898 154.01 92.2059 154.875 94.619C155.713 96.9657 158.343 97.5711 161.942 94.1726C165.681 90.7881 166.936 81.7647 166.802 81.791C166.798 81.7541 161.289 81.9192 158.176 85.412ZM154.686 99.8427C150.938 102.61 149.297 105.678 149.662 108.234C150.022 110.735 152.449 111.879 156.607 109.281C160.894 106.705 163.915 98.0786 163.79 98.0786C163.778 98.0393 158.405 97.0498 154.686 99.8427ZM142.773 40.2661C142.748 37.6855 139.932 34.6008 135.118 33.665C130.298 32.7623 126.408 36.8724 126.408 36.8317C126.544 36.8085 131.96 41.5314 136.085 42.7291C140.36 43.9028 142.802 42.8938 142.773 40.2661ZM118.656 136.66C121.09 137.074 124.249 134.911 125.518 130.627C126.763 126.333 123.315 121.877 123.35 121.877C123.375 121.95 118.593 125.934 117.028 129.781C115.502 133.696 116.175 136.26 118.656 136.66ZM157.321 80.2857C158.628 82.3984 161.335 82.439 164.193 78.3833C167.199 74.2991 166.516 65.2169 166.395 65.2627C166.359 65.2296 160.992 66.5598 158.674 70.6235C156.319 74.682 155.981 78.1355 157.321 80.2857ZM101.694 147.367C97.3507 145.43 93.6624 145.398 91.424 146.905C89.2389 148.361 89.4282 151.107 93.9837 153.648C98.6181 156.342 107.862 154.669 107.776 154.538C107.798 154.509 106.063 149.262 101.694 147.367ZM128.899 135.472C124.36 135.566 121.277 137.132 120.086 139.466C118.911 141.753 120.208 144.155 125.046 144.487C129.967 144.922 137.242 139.479 137.147 139.407C137.157 139.365 133.444 135.337 128.899 135.472ZM116.118 142.968C111.608 142.059 108.189 142.881 106.472 144.881C104.789 146.837 105.556 149.473 110.321 150.895C115.163 152.451 123.514 148.727 123.416 148.624C123.428 148.587 120.633 143.846 116.118 142.968ZM136.466 30.8814C137.923 29.4458 138.054 26.5012 132.728 22.5726C128.531 19.463 122.004 19.8434 122.004 19.8434C122.004 19.8434 123.488 25.9007 127.432 29.0599C131.972 32.6966 134.897 32.3634 136.466 30.8814ZM130.031 128.767C132.463 128.646 135.095 125.862 135.475 121.423C135.818 116.979 131.54 113.372 131.575 113.361C131.606 113.429 127.719 118.324 127.005 122.402C126.342 126.548 127.537 128.907 130.031 128.767ZM139.771 125.418C135.339 126.478 132.673 128.659 131.995 131.201C131.344 133.672 133.094 135.741 137.856 135.028C142.729 134.389 148.766 127.546 148.656 127.501C148.656 127.459 144.194 124.33 139.771 125.418ZM148.451 113.361C144.286 115.312 142.092 117.997 141.947 120.603C141.803 123.153 143.934 124.789 148.478 123.094C153.137 121.437 157.758 113.543 157.645 113.52C157.636 113.478 152.6 111.381 148.451 113.361ZM149.129 97.9929C147.755 93.8499 142.362 92.3621 142.396 92.3395C142.456 92.3846 140.693 98.3801 141.6 102.353C142.59 106.362 144.629 108.001 146.883 106.847C149.1 105.739 150.477 102.157 149.129 97.9929ZM139.526 118.662C141.886 118.025 143.929 114.773 143.422 110.373C142.905 105.994 137.956 103.389 137.992 103.369C138.041 103.433 135.161 108.996 135.274 113.109C135.449 117.279 137.106 119.324 139.526 118.662ZM145.353 38.4611C147.852 39.4071 150.081 37.8079 149.523 32.7219C149.118 27.5341 141.564 20.298 141.43 20.4015C141.368 20.3926 138.123 24.7591 139.38 29.5928C140.584 34.4176 142.773 37.4791 145.353 38.4611ZM156.724 65.7987C158.468 67.5931 161.146 67.0599 163.074 62.4853C165.145 57.8495 162.352 49.0486 162.221 49.1155C162.186 49.0913 157.222 51.5314 155.888 56.0349C154.511 60.5162 154.934 63.9577 156.724 65.7987ZM152.821 51.6736C154.967 53.0759 157.491 51.9887 158.279 47.0593C159.221 42.0571 154.138 33.8697 154.01 33.9531C153.959 33.9367 149.696 37.4114 149.544 42.1637C149.353 46.9151 150.626 50.2455 152.821 51.6736Z" fill="white"/>
<path d="M107.3 71.6V74.4C107.3 74.7864 106.987 75.1 106.6 75.1H67.4002C67.0138 75.1 66.7002 74.7864 66.7002 74.4V71.6C66.7002 71.2136 67.0138 70.9 67.4002 70.9H106.6C106.987 70.9 107.3 71.2136 107.3 71.6ZM85.6002 80V94C85.6002 94.3864 85.2866 94.7 84.9002 94.7H67.4002C67.0138 94.7 66.7002 94.3864 66.7002 94V80C66.7002 79.6136 67.0138 79.3 67.4002 79.3H84.9002C85.2866 79.3 85.6002 79.6136 85.6002 80ZM107.3 80V94C107.3 94.3864 106.987 94.7 106.6 94.7H89.1002C88.7138 94.7 88.4002 94.3864 88.4002 94V80C88.4002 79.6136 88.7138 79.3 89.1002 79.3H106.6C106.987 79.3 107.3 79.6136 107.3 80Z" fill="white"/>
<path d="M112.9 55.5H61.1004C58.7806 55.5 56.9004 57.3802 56.9004 59.7V100.3C56.9004 102.62 58.7806 104.5 61.1004 104.5H112.9C115.22 104.5 117.1 102.62 117.1 100.3V59.7C117.1 57.3802 115.22 55.5 112.9 55.5ZM108 58.3C109.16 58.3 110.1 59.2401 110.1 60.4C110.1 61.5599 109.16 62.5 108 62.5C106.84 62.5 105.9 61.5599 105.9 60.4C105.9 59.2401 106.84 58.3 108 58.3ZM99.6004 58.3C100.76 58.3 101.7 59.2401 101.7 60.4C101.7 61.5599 100.76 62.5 99.6004 62.5C98.4405 62.5 97.5004 61.5599 97.5004 60.4C97.5004 59.2401 98.4405 58.3 99.6004 58.3ZM91.2004 58.3C92.3603 58.3 93.3004 59.2401 93.3004 60.4C93.3004 61.5599 92.3603 62.5 91.2004 62.5C90.0405 62.5 89.1004 61.5599 89.1004 60.4C89.1004 59.2401 90.0405 58.3 91.2004 58.3ZM112.9 99.6C112.9 99.9864 112.587 100.3 112.2 100.3H61.8004C61.414 100.3 61.1004 99.9864 61.1004 99.6V66C61.1004 65.6136 61.414 65.3 61.8004 65.3H112.2C112.587 65.3 112.9 65.6136 112.9 66V99.6Z" fill="white"/>
</svg>
